<svg width="24" height="24" viewBox="0 0 24 24" fill="none" xmlns="http://www.w3.org/2000/svg">
<g clip-path="url(#clip0_2008_1168)">
<path d="M3.26035 0.4944C3.32082 0.348102 3.42333 0.223033 3.55492 0.135025C3.6865 0.0470166 3.84124 2.56973e-05 3.99955 0L19.9995 0C20.2117 0 20.4152 0.0842855 20.5652 0.234315C20.7153 0.384344 20.7995 0.587827 20.7995 0.8V8.8C20.7995 9.01217 20.7153 9.21566 20.5652 9.36569C20.4152 9.51571 20.2117 9.6 19.9995 9.6H13.9307L20.5659 16.2336C20.6781 16.3455 20.7545 16.4882 20.7855 16.6435C20.8165 16.7989 20.8007 16.96 20.74 17.1063C20.6793 17.2527 20.5766 17.3777 20.4448 17.4656C20.3129 17.5535 20.158 17.6003 19.9995 17.6H12.7995V23.2C12.7998 23.3584 12.7531 23.5134 12.6652 23.6452C12.5773 23.777 12.4522 23.8798 12.3059 23.9405C12.1595 24.0011 11.9985 24.017 11.8431 23.986C11.6877 23.955 11.545 23.8786 11.4331 23.7664L3.43315 15.7664C3.3589 15.692 3.30006 15.6036 3.25998 15.5064C3.21989 15.4093 3.19936 15.3051 3.19955 15.2V8.8C3.19955 8.58783 3.28383 8.38434 3.43386 8.23431C3.58389 8.08429 3.78737 8 3.99955 8H10.0683L3.43315 1.3664C3.32133 1.25443 3.24524 1.11183 3.21448 0.956611C3.18372 0.801395 3.19968 0.640544 3.26035 0.4944Z" fill="#A0A0A0"/>
</g>
<defs>
<clipPath id="clip0_2008_1168">
<rect width="24" height="24" fill="white"/>
</clipPath>
</defs>
</svg>
