<svg width="24" height="24" viewBox="0 0 24 24" fill="none" xmlns="http://www.w3.org/2000/svg">
<path fill-rule="evenodd" clip-rule="evenodd" d="M5 1C3.93913 1 2.92172 1.42143 2.17157 2.17157C1.42143 2.92172 1 3.93913 1 5V19C1 20.0609 1.42143 21.0783 2.17157 21.8284C2.92172 22.5786 3.93913 23 5 23H19C20.0609 23 21.0783 22.5786 21.8284 21.8284C22.5786 21.0783 23 20.0609 23 19V5C23 3.93913 22.5786 2.92172 21.8284 2.17157C21.0783 1.42143 20.0609 1 19 1H5ZM5.5 7H9C9.92826 7 10.8185 7.36875 11.4749 8.02513C12.1313 8.6815 12.5 9.57174 12.5 10.5C12.5 11.4283 12.1313 12.3185 11.4749 12.9749C10.8185 13.6313 9.92826 14 9 14H7.5V17H5.5V7ZM7.5 12H9C9.39782 12 9.77936 11.842 10.0607 11.5607C10.342 11.2794 10.5 10.8978 10.5 10.5C10.5 10.1022 10.342 9.72064 10.0607 9.43934C9.77936 9.15804 9.39782 9 9 9H7.5V12ZM17.925 11.634C17.068 11.441 16.16 11.289 15.502 11.338C15.169 11.362 14.744 11.466 15.172 11.81C15.525 12.092 15.942 12.269 16.36 12.445C16.79 12.627 17.222 12.81 17.588 13.111C18.099 13.531 18.5 14.143 18.5 15C18.5 15.855 18.096 16.51 17.452 16.9C16.883 17.244 16.196 17.342 15.601 17.357C14.639 17.381 13.579 17.189 12.789 16.995V14.927C13.517 15.135 14.647 15.38 15.551 15.357C16.021 15.346 16.298 15.26 16.424 15.184C16.624 15.064 16.442 14.758 16.319 14.657C15.967 14.367 15.544 14.189 15.119 14.01C14.699 13.833 14.277 13.655 13.921 13.37C13.411 12.96 13 12.355 13 11.5C13 10.805 13.29 10.22 13.82 9.835C14.292 9.495 14.864 9.379 15.353 9.343C16.178 9.282 17.13 9.425 17.925 9.588V11.634Z" fill="#A0A0A0"/>
</svg>
